<svg xmlns="http://www.w3.org/2000/svg" viewBox="0 0 1100 760" role="img" aria-labelledby="title desc">
  <title id="title">Aurum wheel and tire rinse</title>
  <desc id="desc">Dark wheel and tire with aqua rinse spray and gold accent lighting.</desc>
  <defs>
    <linearGradient id="bg" x1="0" y1="0" x2="1" y2="1">
      <stop offset="0" stop-color="#07080c"/>
      <stop offset=".55" stop-color="#11151b"/>
      <stop offset="1" stop-color="#071b18"/>
    </linearGradient>
    <linearGradient id="gold" x1="0" y1="0" x2="1" y2="1">
      <stop offset="0" stop-color="#ffe2a2"/>
      <stop offset=".45" stop-color="#d7ae5b"/>
      <stop offset="1" stop-color="#76531d"/>
    </linearGradient>
    <linearGradient id="aqua" x1="0" y1="0" x2="1" y2="1">
      <stop offset="0" stop-color="#32e6b8"/>
      <stop offset="1" stop-color="#dffff8"/>
    </linearGradient>
  </defs>
  <rect width="1100" height="760" rx="28" fill="url(#bg)"/>
  <path d="M80 612h940" stroke="#2b3440" stroke-width="3"/>
  <circle cx="450" cy="430" r="218" fill="#050609" stroke="#2b3440" stroke-width="34"/>
  <circle cx="450" cy="430" r="150" fill="#0c1015" stroke="url(#gold)" stroke-width="16"/>
  <circle cx="450" cy="430" r="58" fill="#07090d" stroke="#52606c" stroke-width="10"/>
  <g stroke="url(#gold)" stroke-width="24" stroke-linecap="round">
    <path d="M450 282v76"/>
    <path d="M450 502v76"/>
    <path d="M302 430h76"/>
    <path d="M522 430h76"/>
    <path d="M346 326l54 54"/>
    <path d="M500 480l54 54"/>
    <path d="M554 326l-54 54"/>
    <path d="M400 480l-54 54"/>
  </g>
  <path d="M728 150l226 118" stroke="url(#gold)" stroke-width="28" stroke-linecap="round"/>
  <path d="M930 258l-76 136" stroke="url(#gold)" stroke-width="38" stroke-linecap="round"/>
  <path d="M826 402c-95 44-202 72-322 84-113 12-227 8-340-12" fill="none" stroke="url(#aqua)" stroke-width="26" stroke-linecap="round"/>
  <path d="M808 442c-168 46-354 50-558 10" fill="none" stroke="#effffb" stroke-width="28" stroke-linecap="round" opacity=".78"/>
  <path d="M720 212c-66 18-142 47-228 86" stroke="#32e6b8" stroke-width="9" stroke-linecap="round" opacity=".75"/>
  <circle cx="162" cy="144" r="34" fill="#32e6b8" opacity=".16"/>
  <circle cx="954" cy="126" r="20" fill="#d7ae5b" opacity=".38"/>
</svg>
