<svg xmlns="http://www.w3.org/2000/svg" viewBox="0 0 1100 760" role="img" aria-labelledby="title desc">
  <title id="title">Aurum detailing prep rinse</title>
  <desc id="desc">Close vehicle panel rinse with high contrast gold and aqua styling.</desc>
  <defs>
    <linearGradient id="bg" x1="0" y1="0" x2="1" y2="1">
      <stop offset="0" stop-color="#06070a"/>
      <stop offset=".55" stop-color="#11151b"/>
      <stop offset="1" stop-color="#071b18"/>
    </linearGradient>
    <linearGradient id="panel" x1="0" y1="0" x2="1" y2="1">
      <stop offset="0" stop-color="#1d252f"/>
      <stop offset=".54" stop-color="#0c1015"/>
      <stop offset="1" stop-color="#050609"/>
    </linearGradient>
    <linearGradient id="gold" x1="0" y1="0" x2="1" y2="0">
      <stop offset="0" stop-color="#8c6426"/>
      <stop offset=".5" stop-color="#d7ae5b"/>
      <stop offset="1" stop-color="#ffe2a2"/>
    </linearGradient>
    <linearGradient id="aqua" x1="0" y1="0" x2="1" y2="1">
      <stop offset="0" stop-color="#32e6b8"/>
      <stop offset="1" stop-color="#eafffb"/>
    </linearGradient>
  </defs>
  <rect width="1100" height="760" rx="28" fill="url(#bg)"/>
  <path d="M94 548c178-140 350-226 516-258 156-30 284-9 386 64v208H94Z" fill="url(#panel)" stroke="#2b3440" stroke-width="5"/>
  <path d="M148 538c180-116 344-186 492-208 120-18 218-2 294 48" fill="none" stroke="url(#gold)" stroke-width="8" stroke-linecap="round"/>
  <path d="M168 618h808" stroke="#d7ae5b" stroke-width="5" opacity=".6"/>
  <path d="M780 132l214 114" stroke="url(#gold)" stroke-width="28" stroke-linecap="round"/>
  <path d="M970 238l-72 126" stroke="url(#gold)" stroke-width="38" stroke-linecap="round"/>
  <path d="M874 386c-112 40-248 70-408 90-114 14-226 16-336 8" fill="none" stroke="url(#aqua)" stroke-width="26" stroke-linecap="round"/>
  <path d="M848 426c-194 42-404 52-630 28" fill="none" stroke="#effffb" stroke-width="30" stroke-linecap="round" opacity=".8"/>
  <path d="M232 474c88-48 182-88 282-120" stroke="#32e6b8" stroke-width="8" stroke-linecap="round" opacity=".75"/>
  <circle cx="190" cy="178" r="36" fill="#32e6b8" opacity=".16"/>
  <circle cx="260" cy="138" r="16" fill="#d7ae5b" opacity=".38"/>
</svg>
